<?xml version="1.0" standalone="no"?>
<!DOCTYPE svg PUBLIC "-//W3C//DTD SVG 20010904//EN"
 "http://www.w3.org/TR/2001/REC-SVG-20010904/DTD/svg10.dtd">
<svg version="1.0" xmlns="http://www.w3.org/2000/svg"
 width="1080.000000pt" height="1080.000000pt" viewBox="0 0 1080.000000 1080.000000"
 preserveAspectRatio="xMidYMid meet">
<metadata>
Created by potrace 1.14, written by Peter Selinger 2001-2017
</metadata>
<g transform="translate(0.000000,1080.000000) scale(0.100000,-0.100000)"
fill="#000000" stroke="none">
<path d="M7786 7673 c-2 -3 -691 -6 -1531 -7 -1251 -1 -1528 -4 -1534 -15 -5
-7 -9 -156 -10 -330 -3 -492 -9 -1343 -12 -1701 -2 -179 0 -331 4 -337 6 -9
431 -11 1777 -9 1640 2 1770 1 1770 -14 0 -9 -3 -20 -7 -24 -5 -4 -8 -11 -8
-14 0 -8 -55 -102 -69 -119 -6 -7 -27 -32 -46 -56 -19 -24 -61 -65 -94 -92
-32 -28 -63 -55 -70 -60 -20 -19 -150 -100 -191 -120 -22 -11 -41 -23 -43 -27
-2 -5 -11 -8 -21 -8 -9 0 -21 -4 -26 -9 -12 -11 -153 -69 -240 -99 -155 -53
-390 -105 -575 -128 -96 -11 -118 -13 -215 -20 -148 -10 -275 -10 -275 -1 0 5
-5 5 -12 1 -14 -9 -36 -9 -163 0 -49 4 -92 9 -95 12 -3 3 -5 84 -5 179 0 95
-3 177 -7 180 -7 8 -1376 7 -1388 0 -4 -2 -8 -154 -9 -337 -1 -183 -4 -560 -6
-837 -2 -374 0 -507 8 -515 9 -8 226 -10 742 -8 402 2 735 3 740 3 6 0 40 -1
78 -2 37 -1 70 1 73 4 3 3 18 1 34 -3 16 -4 30 -6 32 -4 4 3 84 5 138 3 16 -1
149 0 220 1 25 0 333 2 685 4 352 2 649 6 660 9 11 2 45 8 75 11 57 7 95 13
95 16 0 1 9 3 20 5 44 6 85 16 109 25 15 5 26 7 26 5 0 -2 12 0 28 6 15 6 34
12 42 14 158 37 529 229 656 340 7 6 24 19 40 30 70 51 203 180 301 294 181
209 332 477 424 750 22 68 42 130 44 139 1 10 8 35 14 57 5 22 13 54 15 70 3
17 8 41 11 55 3 14 8 41 11 60 3 19 7 46 10 60 23 136 22 465 -1 618 -10 62
-14 87 -18 107 -5 22 -18 101 -19 112 -1 5 -9 31 -18 58 -19 56 -20 59 -20 79
0 44 82 43 -1928 40 l-1901 -3 -3 22 c-2 12 -1 101 2 197 l5 175 895 3 c492 1
928 2 968 3 39 0 77 -3 82 -6 6 -3 10 -3 10 2 0 7 127 8 475 4 17 0 50 -1 75
-1 25 0 50 0 55 0 6 -1 111 0 235 0 124 1 230 1 235 0 6 -1 15 -1 20 0 6 1
136 3 290 4 276 1 280 1 283 22 3 22 -133 234 -210 327 -142 172 -272 293
-455 425 -40 29 -75 52 -79 52 -3 0 -25 13 -49 30 -67 46 -250 132 -375 177
-71 26 -286 84 -310 85 -8 0 -33 4 -55 9 -77 16 -408 33 -419 22z"/>
<path d="M3090 7640 c-4 -3 -8 -16 -8 -30 1 -14 0 -50 -1 -80 -1 -30 -1 -121
1 -203 2 -81 1 -147 -2 -147 -3 0 -3 -26 0 -57 3 -32 3 -71 0 -88 -4 -17 0
-39 8 -52 11 -18 17 -20 47 -12 78 22 196 -16 248 -79 10 -12 24 -28 31 -35
20 -21 55 -73 58 -88 2 -8 6 -16 9 -19 11 -9 48 -133 55 -185 14 -98 4 -238
-21 -298 -8 -21 -12 -37 -9 -37 4 0 2 -6 -5 -13 -8 -11 -148 -13 -748 -13
l-738 1 -1 193 c-1 116 -6 198 -12 204 -13 13 -1300 14 -1314 0 -6 -6 -10
-446 -11 -1185 -2 -1036 0 -1176 13 -1184 16 -9 1306 -10 1315 -1 3 3 6 96 7
207 0 110 4 201 7 202 3 0 338 1 744 2 l738 2 14 -30 c32 -74 40 -126 39 -260
-2 -216 -103 -409 -250 -476 -47 -21 -134 -25 -180 -8 -29 10 -45 -3 -44 -37
0 -37 0 -55 -1 -124 -1 -30 -1 -59 -1 -65 6 -84 5 -305 -1 -305 -5 0 -5 -5 -2
-10 4 -6 6 -35 6 -65 0 -61 2 -62 83 -64 26 -1 52 -4 57 -7 5 -3 9 -2 9 3 0 6
162 9 180 2 3 -1 9 -1 14 0 35 7 76 6 76 -1 0 -5 6 -6 12 -2 14 9 174 8 189
-1 5 -4 9 -3 9 2 0 7 40 8 195 4 142 -4 180 2 230 34 69 44 140 118 181 188
19 32 34 62 34 66 0 4 7 22 16 40 9 17 17 37 18 44 1 7 8 39 16 72 10 48 13
383 13 1740 0 924 -3 1713 -7 1753 -18 180 -117 365 -241 449 -80 55 -93 56
-598 57 -258 1 -472 -1 -477 -4z"/>
</g>
</svg>
